<svg fill="none" height="190" width="260" xmlns="http://www.w3.org/2000/svg"><path d="M154 29h102v155H108.5z" fill="#fff" opacity=".12"/><path d="M107 184H5V29h147.5z" fill="#000" opacity=".12"/><rect height="182" rx="9" stroke="#000" stroke-width="8" width="252" x="4" y="4"/><path d="M7 27.5h245" stroke="#000" stroke-width="3"/><g fill="#000"><circle cx="18" cy="17" opacity=".75" r="3"/><circle cx="29" cy="17" opacity=".75" r="3"/><circle cx="40" cy="17" opacity=".75" r="3"/><path d="M52.156 127l3.227-10.719h18.484L77.094 127H93.5L75.016 71H54.234L35.75 127zm6.672-22.094l5.578-18.484h.438l5.578 18.484zM173.609 127h26.36c12.168 0 19.687-6.645 19.687-15.859 0-7.903-5.824-13.07-13.015-13.344v-.547c6.48-1.285 10.828-6.07 10.828-12.25 0-8.531-6.781-14-19.578-14h-24.282zm15.204-12.141v-11.812h7.328c4.621 0 7.437 2.187 7.437 6.125 0 3.746-2.543 5.687-7.656 5.687zm0-21.218V82.92h6.453c3.773 0 6.562 1.915 6.562 5.36 0 3.446-2.789 5.36-6.781 5.36z"/></g><path d="M154.395 27.717l-47 157" opacity=".75" stroke="#000" stroke-width="5"/></svg>