<svg fill="none" height="190" viewBox="0 0 260 190" width="260" xmlns="http://www.w3.org/2000/svg"><path d="m154 29h102v155h-147.5z" fill="#fff" opacity=".12"/><path d="m107 184h-102v-155h147.5z" fill="#000" opacity=".12"/><rect height="182" rx="9" stroke="#000" stroke-width="8" width="252" x="4" y="4"/><path d="m7 27.5h245" stroke="#000" stroke-width="3"/><g fill="#000"><circle cx="18" cy="17" opacity=".75" r="3"/><circle cx="29" cy="17" opacity=".75" r="3"/><circle cx="40" cy="17" opacity=".75" r="3"/><path d="m52.1563 127 3.2265-10.719h18.4844l3.2266 10.719h16.4062l-18.4844-56h-20.7812l-18.4844 56zm6.6718-22.094 5.5782-18.4841h.4375l5.5781 18.4841z"/><path d="m173.609 127h26.36c12.168 0 19.687-6.645 19.687-15.859 0-7.903-5.824-13.0707-13.015-13.3441v-.5469c6.48-1.2852 10.828-6.0703 10.828-12.25 0-8.5312-6.781-14-19.578-14h-24.282zm15.204-12.141v-11.812h7.328c4.621 0 7.437 2.187 7.437 6.125 0 3.746-2.543 5.687-7.656 5.687zm0-21.2184v-10.7187h6.453c3.773 0 6.562 1.914 6.562 5.3593 0 3.4454-2.789 5.3594-6.781 5.3594z"/></g><path d="m154.395 27.717-47 157" opacity=".75" stroke="#000" stroke-width="5"/></svg>