<?xml version="1.0" encoding="utf-8"?>
<!-- Generator: Adobe Illustrator 22.0.1, SVG Export Plug-In . SVG Version: 6.00 Build 0)  -->
<svg version="1.1" id="Layer_1" xmlns="http://www.w3.org/2000/svg" xmlns:xlink="http://www.w3.org/1999/xlink" x="0px" y="0px"
	 viewBox="0 0 211.7 105.1" style="enable-background:new 0 0 211.7 105.1;" xml:space="preserve">
<style type="text/css">
	.st0{fill:none;stroke:#231F20;stroke-width:5;stroke-miterlimit:10;}
	.st1{fill:none;stroke:#231F20;stroke-width:5;stroke-miterlimit:10;}
</style>
<path class="st0" d="M130.2,100.7l-13.3-20.4l-13.3,20.4H52.8L118,4.3l62.6,96.4H130.2z M43,44H3.3V4.3h103.7L43,98.7V44z"/>
<path class="st1" d="M128.7,4.3c0,0,44.4,0,67.2,0c3.1,0,6.2,1.3,8.4,3.5c2.2,2.2,3.5,5.3,3.5,8.4c0,18.5,0,54.1,0,72.6
	c0,3.2-1.3,6.2-3.5,8.4c-2.2,2.2-5.2,3.5-8.4,3.5h-4.6L128.7,4.3z"/>
</svg>
